<svg width="1200" height="320" viewBox="0 0 1200 320" fill="none" xmlns="http://www.w3.org/2000/svg" role="img" aria-labelledby="title desc">
  <title id="title">Christopher Law profile banner</title>
  <desc id="desc">Application architecture, platform engineering, .NET, Kubernetes, GitOps and DevSecOps.</desc>
  <defs>
    <linearGradient id="bg" x1="0" y1="0" x2="1200" y2="320" gradientUnits="userSpaceOnUse">
      <stop stop-color="#111827"/>
      <stop offset="0.55" stop-color="#172554"/>
      <stop offset="1" stop-color="#0f766e"/>
    </linearGradient>
    <radialGradient id="glow" cx="0" cy="0" r="1" gradientUnits="userSpaceOnUse" gradientTransform="translate(980 70) rotate(132) scale(380 220)">
      <stop stop-color="#67e8f9" stop-opacity="0.38"/>
      <stop offset="1" stop-color="#67e8f9" stop-opacity="0"/>
    </radialGradient>
  </defs>
  <rect width="1200" height="320" rx="26" fill="url(#bg)"/>
  <rect width="1200" height="320" rx="26" fill="url(#glow)"/>
  <path d="M824 48h248c26.51 0 48 21.49 48 48v128c0 26.51-21.49 48-48 48H824c-26.51 0-48-21.49-48-48V96c0-26.51 21.49-48 48-48Z" fill="#ffffff" fill-opacity="0.06"/>
  <path d="M850 110h194M850 160h146M850 210h92" stroke="#a7f3d0" stroke-width="16" stroke-linecap="round" opacity="0.65"/>
  <circle cx="1030" cy="210" r="30" fill="#22d3ee" fill-opacity="0.35"/>
  <circle cx="1090" cy="110" r="18" fill="#a7f3d0" fill-opacity="0.45"/>
  <text x="72" y="122" fill="#f8fafc" font-family="Segoe UI, Inter, Arial, sans-serif" font-size="48" font-weight="700">Christopher Law</text>
  <text x="72" y="174" fill="#cbd5e1" font-family="Segoe UI, Inter, Arial, sans-serif" font-size="26" font-weight="500">Application Architect · Platform Engineer</text>
  <text x="72" y="224" fill="#a7f3d0" font-family="Segoe UI, Inter, Arial, sans-serif" font-size="22" font-weight="600">.NET · Kubernetes · GitOps · DevSecOps · Production-grade systems</text>
</svg>
